<svg width="29" height="16" viewBox="0 0 29 16" fill="none" xmlns="http://www.w3.org/2000/svg">
<path d="M27.3457 3.79469C26.0871 1.44425 23.6271 0 20.9669 0H0.686503C0.314647 0 0 0.311504 0 0.707965C0 0.877876 0.0858129 1.04779 0.20023 1.18938L4.60529 5.57876C5.00575 5.97522 5.52063 6.20177 6.06411 6.17345H20.3377C21.3674 6.17345 22.1969 6.96637 22.1969 7.98584C22.1969 9.00531 21.396 9.82655 20.3663 9.82655H10.555C10.1831 9.82655 9.86848 10.1381 9.86848 10.5345C9.86848 10.7044 9.9543 10.8743 10.0687 11.0159L14.4738 15.4053C14.8742 15.8018 15.3891 16 15.9612 16H20.4235C26.2015 16 30.578 9.88319 27.3457 3.79469Z" fill="#EB1700"/>
</svg>
